<svg class="lds-spinner" width="200px"  height="200px"  xmlns="http://www.w3.org/2000/svg" xmlns:xlink="http://www.w3.org/1999/xlink" viewBox="0 0 100 100" preserveAspectRatio="xMidYMid" style="background: none;"><g transform="rotate(0 50 50)">
  <rect x="47.5" y="30" rx="4.75" ry="3" width="5" height="20" fill="#e9f4ff">
    <animate attributeName="opacity" values="1;0" times="0;1" dur="2.1s" begin="-1.925s" repeatCount="indefinite"></animate>
  </rect>
</g><g transform="rotate(30 50 50)">
  <rect x="47.5" y="30" rx="4.75" ry="3" width="5" height="20" fill="#e9f4ff">
    <animate attributeName="opacity" values="1;0" times="0;1" dur="2.1s" begin="-1.75s" repeatCount="indefinite"></animate>
  </rect>
</g><g transform="rotate(60 50 50)">
  <rect x="47.5" y="30" rx="4.75" ry="3" width="5" height="20" fill="#e9f4ff">
    <animate attributeName="opacity" values="1;0" times="0;1" dur="2.1s" begin="-1.5750000000000002s" repeatCount="indefinite"></animate>
  </rect>
</g><g transform="rotate(90 50 50)">
  <rect x="47.5" y="30" rx="4.75" ry="3" width="5" height="20" fill="#e9f4ff">
    <animate attributeName="opacity" values="1;0" times="0;1" dur="2.1s" begin="-1.4000000000000001s" repeatCount="indefinite"></animate>
  </rect>
</g><g transform="rotate(120 50 50)">
  <rect x="47.5" y="30" rx="4.75" ry="3" width="5" height="20" fill="#e9f4ff">
    <animate attributeName="opacity" values="1;0" times="0;1" dur="2.1s" begin="-1.225s" repeatCount="indefinite"></animate>
  </rect>
</g><g transform="rotate(150 50 50)">
  <rect x="47.5" y="30" rx="4.75" ry="3" width="5" height="20" fill="#e9f4ff">
    <animate attributeName="opacity" values="1;0" times="0;1" dur="2.1s" begin="-1.05s" repeatCount="indefinite"></animate>
  </rect>
</g><g transform="rotate(180 50 50)">
  <rect x="47.5" y="30" rx="4.75" ry="3" width="5" height="20" fill="#e9f4ff">
    <animate attributeName="opacity" values="1;0" times="0;1" dur="2.1s" begin="-0.875s" repeatCount="indefinite"></animate>
  </rect>
</g><g transform="rotate(210 50 50)">
  <rect x="47.5" y="30" rx="4.75" ry="3" width="5" height="20" fill="#e9f4ff">
    <animate attributeName="opacity" values="1;0" times="0;1" dur="2.1s" begin="-0.7000000000000001s" repeatCount="indefinite"></animate>
  </rect>
</g><g transform="rotate(240 50 50)">
  <rect x="47.5" y="30" rx="4.75" ry="3" width="5" height="20" fill="#e9f4ff">
    <animate attributeName="opacity" values="1;0" times="0;1" dur="2.1s" begin="-0.525s" repeatCount="indefinite"></animate>
  </rect>
</g><g transform="rotate(270 50 50)">
  <rect x="47.5" y="30" rx="4.75" ry="3" width="5" height="20" fill="#e9f4ff">
    <animate attributeName="opacity" values="1;0" times="0;1" dur="2.1s" begin="-0.35000000000000003s" repeatCount="indefinite"></animate>
  </rect>
</g><g transform="rotate(300 50 50)">
  <rect x="47.5" y="30" rx="4.75" ry="3" width="5" height="20" fill="#e9f4ff">
    <animate attributeName="opacity" values="1;0" times="0;1" dur="2.1s" begin="-0.17500000000000002s" repeatCount="indefinite"></animate>
  </rect>
</g><g transform="rotate(330 50 50)">
  <rect x="47.5" y="30" rx="4.75" ry="3" width="5" height="20" fill="#e9f4ff">
    <animate attributeName="opacity" values="1;0" times="0;1" dur="2.1s" begin="0s" repeatCount="indefinite"></animate>
  </rect>
</g></svg>